<?xml version="1.0" encoding="UTF-8"?>
<svg id="a" xmlns="http://www.w3.org/2000/svg" width="1827.34pt" height="1514.32pt" viewBox="0 0 1827.34 1514.32">
  <path fill="#3b4b44ff" d="M1239.32,1514.32l-466.18-472.65-63.13,62.7c-7.46,2.15-13.98,1.78-20.33-2.62-11.59-8.03-63.27-60.45-72.64-72.56-7.4-9.57-7.94-14.97-.89-25.26l60.12-59.13-41.91-44.96c-5.96-3.36-12.51-5.4-18.83-1.49L0,1514.32h155.82c-7.61-10.03-23.22-19.01-14.89-33.5l82.08-80.8c7.62-2.45,11.91-.81,17.84,3.59,9.65,7.16,68.55,65.87,74.04,74.7,11.32,18.22-4.46,23.19-13.87,36h938.3ZM475.14,1336.96l-79.3,81.84c-8.06,3.76-15.37,2.4-22.27-2.72-11.38-8.44-64.66-61.46-72.58-72.62-5.36-7.55-6.49-14.29-.97-22.26,7.27-10.48,64.37-67.05,75.32-75.18,2.18-1.62,3.69-3.4,6.63-4.05,7.45-1.65,12.61,1.48,18.24,5.81,14.77,11.36,56.39,53.34,68.15,68.19,4.98,6.29,10.43,12.56,6.78,20.98ZM629.55,1185.04c-7.75,10.95-62.29,65.12-73.52,73.45-8.68,6.44-16.11,6.5-24.86,0-12.6-9.35-62.28-59.07-71.73-71.7-5.92-7.91-7.82-14.54-1.82-23.17l77.2-76.84c13.23-8.33,18.94,1.88,27.27,8.92,17.57,14.85,32.82,33.02,48.72,49.5,10.85,11.25,31.85,21.31,18.74,39.84Z"/>
  <path fill="#0a6b66" d="M803.15,50.76c21.79,20.22,39.53,48.56,48.77,76.88,34.51-4.89,65.94-6.56,98.9,6.46,93.37,36.89,126.68,152.09,66.99,233.37-18.34,24.97-46.93,47.34-77.58,54.35-.82,4.62.67,2.74,2.52,3.68,13.91,7.12,23.55,9.68,23.97,28.86l-54.4,149.35c-.78,4.54-.55,9.16-.4,13.74,1.67,48.94,6.74,91.62,3.5,141.65-4.77,73.68-17.63,149.97-53.13,215.15h-3.51c16.94-75.11,9.02-157.55-23.03-227.52l-560.2-206.51c-34.73-18.76,3.96-64.54,7.76-91.84l-54.04-19.29c-3,.22-4.66,20.67-23.5,18.16-8.14-1.09-61.37-20.7-68.9-25.11-13.58-7.95-9.64-17.25-5.87-29.59,15.96-52.23,41.2-104.27,57.55-156.7,3.05-6.08,8.95-12.22,15.99-12.49l74.75,26.26c9.55,6.47,9.22,19.35,4.01,28.72l55.75,19.53c9.22-18.07,13.3-44.81,23.26-61.8,7.05-12.03,17.69-14.78,31.25-12.19,25.15,4.79,67.51,25.89,94.23,35.03,2.22.76,12.1,4.64,13.3,3.51-32.65-79.56-9.74-173.01,59.65-224.54,73.97-54.93,174.94-49.73,242.41,12.86Z"/>
  <path fill="#6a786dff" d="M585.42,1470.17c8.41-8.41,22.05-8.41,30.46,0l44.15,44.15h1167.31l-544.48-543.66c-5.13.01-31.48,32.31-38.94,37.25-9.61,6.36-15.95,1.91-23.94-4.41-17.83-14.11-48.55-46.11-64.88-63.5-7.83-8.34-14.39-14.97-9.6-26.96,3.5-8.76,39.75-37.54,38.95-42.12l-51.15-51.66c-7.33-6.54-16.21-4.04-23.14,1.79l-277.07,277.24-415.22,416.03h123.39l44.15-44.15ZM990.62,1066.27c6.61-9.37,65.12-67.84,74.44-74.3,5.9-4.09,17.72-5.82,23.4-1.24,1.18.95,2.17,4.01,3.96,5.71,24.19,23,46.94,47.56,70.92,70.79,5.31,6.14,5.13,16.31-.85,22.17l-76.08,76.2c-17.45,9.99-30.72-13.3-40.83-23.1-17.06-16.53-35.19-32.47-51.39-49.54-8.41-8.86-11.37-15.6-3.56-26.69ZM835.14,1220.45l68.69-68.69c1.3-1.3,2.74-2.38,4.25-3.28.94-.81,1.69-1.38,2.08-1.55,2.38-1.08,5.36-1.54,8.44-1.46,3.3-.07,6.6.62,9.65,2.06,2.26.96,4.27,2.23,5.77,3.81l6.22,6.36,62.74,62.74c1.99,1.99,3.5,4.29,4.55,6.73,1.36,2.36,1.87,5.04,1.73,7.81.18,5.74-1.89,11.54-6.28,15.92l-68.69,68.69c-8.41,8.41-22.05,8.41-30.46,0l-68.69-68.69c-8.41-8.41-8.41-22.05,0-30.46ZM674.32,1381.27l68.69-68.69c8.41-8.41,22.05-8.41,30.46,0l68.69,68.69c8.41,8.41,8.41,22.05,0,30.46l-68.69,68.69c-8.41,8.41-22.05,8.41-30.46,0l-68.69-68.69c-8.41-8.41-8.41-22.05,0-30.46Z"/>
</svg>