<?xml version="1.0" standalone="no"?>
<!DOCTYPE svg PUBLIC "-//W3C//DTD SVG 20010904//EN"
  "http://www.w3.org/TR/2001/REC-SVG-20010904/DTD/svg10.dtd">
<svg version="1.0" xmlns="http://www.w3.org/2000/svg"
 width="547.000000pt" height="456.000000pt" viewBox="0 0 547.000000 456.000000"
 preserveAspectRatio="xMidYMid meet">

<g transform="translate(0.000000,456.000000) scale(0.100000,-0.100000)"
  fill="#136c4c" stroke="#5b7b73" stroke-width="17">
<path d="M1913 4546 c-99 -20 -206 -79 -282 -155 -73 -71 -107 -125 -142 -223
-31 -88 -31 -257 -1 -340 11 -32 17 -60 14 -62 -4 -2 -41 8 -82 24 -41 15
-112 42 -157 59 -86 32 -122 37 -152 21 -10 -5 -35 -53 -56 -110 -21 -55 -41
-100 -44 -100 -4 0 -43 13 -86 29 l-80 29 3 34 c2 20 -2 39 -10 44 -30 23
-221 85 -243 80 -18 -5 -29 -22 -50 -78 -14 -40 -31 -84 -37 -98 -32 -79 -128
-356 -128 -371 0 -25 29 -42 143 -84 103 -37 125 -36 146 4 10 18 14 17 86 -8
41 -15 79 -31 84 -36 6 -6 -3 -43 -25 -98 -19 -49 -34 -99 -34 -110 1 -31 21
-54 61 -71 37 -15 760 -281 1239 -456 489 -178 435 -153 458 -213 63 -160 89
-400 62 -562 -4 -27 -6 -52 -5 -53 7 -8 53 95 74 163 62 199 86 421 79 722 -4
166 -2 226 8 253 7 19 32 87 55 150 23 63 53 144 66 179 31 84 28 120 -14 146
-18 11 -32 22 -33 25 0 3 27 18 60 34 114 52 211 172 245 301 47 183 -34 392
-192 493 -86 55 -164 74 -280 71 l-102 -4 -36 73 c-112 222 -370 349 -612 298z"/>
<path d="M2940 1665 c-234 -234 -430 -425 -435 -425 -6 0 -48 38 -95 85 l-84
85 -103 -101 c-86 -85 -105 -100 -125 -94 -37 11 -268 247 -268 275 0 15 31
54 97 122 l98 99 -71 70 c-40 38 -78 69 -85 69 -8 0 -430 -416 -939 -925
l-925 -925 218 0 218 0 -22 30 -22 29 26 38 c29 42 187 199 227 226 13 9 30
17 37 17 18 0 241 -218 260 -253 14 -27 13 -32 -6 -58 l-22 -29 2277 0 c1502
0 2275 3 2272 10 -4 12 -1600 1610 -1608 1610 -3 0 -32 -27 -64 -60 -35 -36
-67 -60 -80 -60 -32 0 -276 248 -276 280 0 18 18 44 60 85 l60 59 -82 83 c-46
46 -89 83 -98 83 -8 0 -206 -191 -440 -425z m453 -213 c70 -71 127 -136 127
-145 0 -20 -33 -59 -146 -173 -101 -102 -120 -115 -149 -104 -31 13 -265 255
-265 275 0 10 57 76 127 147 98 99 133 128 153 128 20 0 55 -29 153 -128z
m-1610 -291 c112 -112 128 -132 122 -152 -4 -13 -62 -79 -128 -146 -92 -93
-128 -123 -147 -123 -19 0 -56 31 -149 124 -100 100 -123 129 -123 152 0 23
22 51 126 151 82 80 135 123 149 123 14 0 65 -44 150 -129z m1129 -178 c99
-98 128 -133 128 -153 0 -28 -32 -70 -53 -70 -7 0 -77 65 -157 145 l-144 144
23 25 c13 14 33 27 45 29 11 2 23 5 25 6 2 0 62 -56 133 -126z m-1604 -296
c89 -90 122 -130 122 -148 0 -31 -243 -279 -274 -279 -29 0 -276 249 -276 278
0 15 40 62 125 147 101 101 130 125 153 125 23 0 51 -24 150 -123z"/>
</g>
</svg>

